/* XPM */
static char * freecad_xpm[] = {
"32 32 170 2",
"  	c None",
". 	c #2C92E9",
"+ 	c #2C94ED",
"@ 	c #2C94EC",
"# 	c #2B90E6",
"$ 	c #2B92E9",
"% 	c #2B91E8",
"& 	c #2D95EF",
"* 	c #2B91E7",
"= 	c #2D96EF",
"- 	c #38A7F9",
"; 	c #3099EF",
"> 	c #2B8FE6",
", 	c #2B90E7",
"' 	c #2686D6",
") 	c #1E72B9",
"! 	c #3CAEFF",
"~ 	c #37A4F7",
"{ 	c #2E95EA",
"] 	c #2A8FE5",
"^ 	c #2C91E8",
"/ 	c #2889DB",
"( 	c #1F75BE",
"_ 	c #1A6AAE",
": 	c #1A69AC",
"< 	c #3CADFF",
"[ 	c #3DAEFF",
"} 	c #3CACFE",
"| 	c #34A0F4",
"1 	c #2C93E9",
"2 	c #298CE1",
"3 	c #217BC6",
"4 	c #1A6BAF",
"5 	c #1969AB",
"6 	c #1A6AAD",
"7 	c #3DAFFF",
"8 	c #38A5F7",
"9 	c #1D71B6",
"0 	c #1968AA",
"a 	c #1A6BAE",
"b 	c #2F98EE",
"c 	c #39A6F7",
"d 	c #1C6EB1",
"e 	c #1A6CB0",
"f 	c #298BDF",
"g 	c #2B91E9",
"h 	c #2C95EF",
"i 	c #2C91E7",
"j 	c #1C6EB2",
"k 	c #1A6AAC",
"l 	c #2889DC",
"m 	c #2D96F0",
"n 	c #2C93EB",
"o 	c #36A2F5",
"p 	c #2E96EC",
"q 	c #2A8FE6",
"r 	c #237DC9",
"s 	c #2F95E4",
"t 	c #3BACFE",
"u 	c #1D71B7",
"v 	c #2A8DE1",
"w 	c #2A8EE3",
"x 	c #2079C3",
"y 	c #3BABFD",
"z 	c #339EF2",
"A 	c #2C92E8",
"B 	c #227DCA",
"C 	c #247FCB",
"D 	c #339DED",
"E 	c #39A7F8",
"F 	c #1B6CB0",
"G 	c #227DC9",
"H 	c #2B8FE5",
"I 	c #237ECB",
"J 	c #1B6DB1",
"K 	c #39A8FB",
"L 	c #319AEF",
"M 	c #2788DB",
"N 	c #217BC7",
"O 	c #2888D5",
"P 	c #329BEB",
"Q 	c #1B6DAF",
"R 	c #2077C1",
"S 	c #298CE0",
"T 	c #2584D4",
"U 	c #1D70B6",
"V 	c #1A6BAD",
"W 	c #37A5F8",
"X 	c #2F97EC",
"Y 	c #2685D7",
"Z 	c #2480CD",
"` 	c #227CC7",
" .	c #2788DA",
"..	c #1F74BD",
"+.	c #3CADFE",
"@.	c #35A1F5",
"#.	c #2D94EA",
"$.	c #2C93EA",
"%.	c #2A8DE2",
"&.	c #217AC5",
"*.	c #1A69AB",
"=.	c #2F97ED",
"-.	c #329CF0",
";.	c #2480CE",
">.	c #1B6DB2",
",.	c #309BF4",
"'.	c #2A8EE4",
").	c #298BDA",
"!.	c #36A2F3",
"~.	c #1C6DB0",
"{.	c #1D72B8",
"].	c #2A90E6",
"^.	c #1F76BF",
"/.	c #3CAFFE",
"(.	c #2B8EE3",
"_.	c #2582D2",
":.	c #2C8FDE",
"<.	c #39A8F9",
"[.	c #237FCD",
"}.	c #227CC8",
"|.	c #3DB1FF",
"1.	c #3AAAFC",
"2.	c #329CF1",
"3.	c #288ADD",
"4.	c #2583D1",
"5.	c #3096E6",
"6.	c #3BACFD",
"7.	c #2179C4",
"8.	c #298BDE",
"9.	c #2583D2",
"0.	c #1C6FB4",
"a.	c #1B6CB1",
"b.	c #38A7FA",
"c.	c #2686D8",
"d.	c #2785D4",
"e.	c #349DED",
"f.	c #3EAFFF",
"g.	c #1E74BC",
"h.	c #2787D9",
"i.	c #1E73BB",
"j.	c #36A3F7",
"k.	c #2C92E6",
"l.	c #2583D4",
"m.	c #2A8BD9",
"n.	c #37A5F5",
"o.	c #1C6FB5",
"p.	c #2584D3",
"q.	c #2179C3",
"r.	c #3EB3FF",
"s.	c #349FF4",
"t.	c #2583D3",
"u.	c #2B8CDA",
"v.	c #237ECA",
"w.	c #298CDF",
"x.	c #237ECC",
"y.	c #1B6EB4",
"z.	c #3DB0FF",
"A.	c #3EB4FF",
"B.	c #3AA9FC",
"C.	c #319BEF",
"D.	c #2684D4",
"E.	c #36A3F6",
"F.	c #2076BF",
"G.	c #1B6EB3",
"H.	c #39A7F7",
"I.	c #1C6DB1",
"J.	c #3FB3FF",
"K.	c #1B6CB2",
"L.	c #3AA9FB",
"M.	c #1D70B5",
"                                                                ",
"                                                                ",
"                            . + @ .                             ",
"                        . . @ # # + . $                         ",
"                      % & * # # # # * = @                       ",
"                    - ; > > # # # # % , ' )                     ",
"                    ! ! ~ { ] # * ^ / ( _ :                     ",
"                    < ! [ } | 1 2 3 4 5 4 6                     ",
"                    ! ! < < 7 8 9 0 6 6 a 4                     ",
"                , b [ < < < [ c d : 6 6 6 e f                   ",
"              g h i - 7 < < [ c j : 6 6 6 k l m n               ",
"            o p q 2 r s t 7 [ c j : 6 6 5 u v . w x             ",
"            [ y z A 2 B C D 7 E j k 5 F G H H I J 5             ",
"            < < [ K L % M N O P Q k R S . T U 5 V 6             ",
"            < < < ! ! W X # Y Z `  .. l ..: : 6 a 6             ",
"            ! < < < < [ +.@.#., $.%.&.a *.6 6 6 a a             ",
"          =.! [ < < < < < [ y -.;.>.5 6 6 6 6 6 6 _  .          ",
"      ~ ,.'.).!.7 ! < < < < [ E ~.*.6 6 6 6 6 k 5 {.'.].^.      ",
"      ! /.| (._.:.<.7 < < < [ c j : 6 6 6 6 5 J [.S }.>.:       ",
"      < |.[ 1.2.3.4.5.6.7 < [ c j : 6 6 *.6 7.8.9.0.5 a.6       ",
"      < |.< ! [ b.X c.d.e.! f.c j : : : g. .h.i.5 : 6 a.6       ",
"      < |.< < < [ < j.k.l.m.n.E d 0 o.p.8.q.6 : 6 6 6 a.6       ",
"      < r.< < < < < [ 6.s.v t.u.9 v.w.x.F 5 6 6 6 6 6 y.6       ",
"        z.A.! < < < < < [ B.C.S %.D.U 5 6 6 6 6 6 a y.F         ",
"          7 7 r.< < < < < ! [ E.F.*.: 6 6 6 6 6 G.4 4           ",
"              7 z.|.< < < < [ H.I.: 6 6 6 6 J 4 4               ",
"                  7 r.7 < < [ c j : 6 6 4 G.4                   ",
"                      7 A.! [ c j : a y.4                       ",
"                        7 7 J.c j K.4 4                         ",
"                            |.L.M.a                             ",
"                                                                ",
"                                                                "};
