<?xml version="1.0" encoding="UTF-8" standalone="no"?>
<svg
   inkscape:version="1.1.2 (b8e25be833, 2022-02-05)"
   sodipodi:docname="icon1.svg"
   id="svg23"
   version="1.1"
   viewBox="0 0 379 379"
   height="379pt"
   width="379pt"
   xmlns:inkscape="http://www.inkscape.org/namespaces/inkscape"
   xmlns:sodipodi="http://sodipodi.sourceforge.net/DTD/sodipodi-0.dtd"
   xmlns="http://www.w3.org/2000/svg"
   xmlns:svg="http://www.w3.org/2000/svg">
  <defs
     id="defs27" />
  <sodipodi:namedview
     id="namedview25"
     pagecolor="#505050"
     bordercolor="#ffffff"
     borderopacity="1"
     inkscape:pageshadow="0"
     inkscape:pageopacity="0"
     inkscape:pagecheckerboard="1"
     inkscape:document-units="pt"
     showgrid="false"
     inkscape:zoom="1.4228232"
     inkscape:cx="225.25638"
     inkscape:cy="252.66667"
     inkscape:window-width="1718"
     inkscape:window-height="1412"
     inkscape:window-x="-3"
     inkscape:window-y="0"
     inkscape:window-maximized="0"
     inkscape:current-layer="svg23" />
  <g
     id="g856"
     transform="translate(17.99,0.37987377)">
    <g
       id="#5b9fabff">
      <path
         fill="#2b90e6"
         opacity="1"
         d="m 166.96,17.93 c 1.91,-1.03 4.22,-3 6.36,-1.31 20.91,12.09 41.82,24.17 62.74,36.23 2.18,1.33 4.71,2.2 6.39,4.23 -23.8,13.6 -47.42,27.53 -71.29,41.02 C 153.68,87.75 135.98,77.78 118.45,67.52 112.17,64.06 106.11,60.19 99.69,56.98 121.94,43.67 144.59,31.03 166.96,17.93 Z"
         id="path2" />
      <path
         fill="#2b90e6"
         opacity="1"
         d="m 243.33,103.08 c 1.88,0.39 3.53,1.4 5.12,2.44 10.38,5.96 20.72,12 31.12,17.94 3.84,2.44 8.09,4.23 11.6,7.17 -6.59,3.04 -12.73,6.9 -18.98,10.55 -26.44,15.2 -52.85,30.46 -79.25,45.73 -7.28,4.22 -14.72,8.18 -21.7,12.89 -5.55,-4.36 -11.96,-7.38 -17.96,-11.05 -29.48,-16.81 -58.73,-34.02 -88.2,-50.85 -4.38,-2.29 -8.48,-5.07 -12.72,-7.59 1.66,-2.2 4.31,-3.07 6.58,-4.46 11.73,-6.92 23.65,-13.55 35.36,-20.52 1.24,-0.73 2.59,-1.23 4.04,-1.34 -0.21,5.93 -0.2,11.96 1.03,17.79 0.33,2.54 2.55,4.03 4.54,5.29 14.84,8.86 30.15,16.93 44.85,26.03 7.4,3.95 14.46,8.53 22.06,12.09 -0.04,1.56 -0.09,3.12 -0.14,4.68 -19.16,-10.07 -37.47,-21.69 -56.42,-32.16 -5.42,-2.9 -10.4,-6.67 -16.24,-8.75 0.33,2.36 0.39,5.02 2.24,6.78 3.66,3.89 8.6,6.14 13.11,8.84 6.92,4.1 13.75,8.36 20.88,12.12 9.22,4.77 17.62,11.25 27.6,14.47 6.23,2.28 13.17,2.11 19.42,0.02 12.23,-4.18 22.62,-12.08 34,-17.96 6.92,-3.6 13.42,-7.92 20.17,-11.8 3.36,-2.15 7.09,-4.31 9.01,-7.95 0.58,-2.79 0.09,-5.66 -0.06,-8.47 -0.71,-7.3 -0.18,-14.65 -1.06,-21.93 z"
         id="path4" />
      <path
         fill="#2b90e6"
         opacity="1"
         d="m 46.01,189.05 c 1.43,-0.89 2.99,-1.55 4.64,-1.93 -0.42,3.49 -0.65,7.2 0.83,10.48 0.91,2.01 3.08,2.92 4.86,4 6.92,3.58 13.42,7.91 20.18,11.78 24.49,13.77 48.66,28.11 73.08,42 6.97,4.42 14.5,7.89 21.23,12.68 -0.04,0.74 -0.11,2.2 -0.14,2.94 -6.72,-2.87 -12.71,-7.09 -19.08,-10.6 -23.15,-13.55 -46.54,-26.69 -69.6,-40.39 -7.79,-4.11 -15.32,-8.68 -22.88,-13.19 -2.53,-1.58 -5.36,-2.6 -8.28,-3.16 1.54,2.58 3.61,4.82 6.2,6.37 10.14,6.3 20.49,12.26 30.92,18.08 7.91,5.3 16.62,9.22 24.63,14.37 7.42,4.28 14.71,8.8 22.31,12.76 8.58,4.67 16.75,10.08 25.45,14.54 4.14,1.91 8.64,4.15 13.33,3.19 7.56,-1.5 13.96,-6.06 20.69,-9.54 22.67,-13.42 45.53,-26.49 68.41,-39.55 9.23,-5.82 19.21,-10.46 27.87,-17.17 1.6,-0.97 1.6,-2.97 1.72,-4.62 0.13,-5.06 -0.13,-10.13 -0.71,-15.15 0.47,0.11 1.4,0.34 1.86,0.45 8.72,4.96 17.36,10.08 26.11,15.01 0.42,0.4 1.26,1.21 1.68,1.61 -18.97,10.29 -37.5,21.4 -56.25,32.09 -26.79,15.53 -53.68,30.9 -80.42,46.51 -4.57,2.55 -9.06,5.23 -13.38,8.18 -1.69,-1.35 -3.38,-2.7 -5.19,-3.86 -44.29,-25.28 -88.4,-50.88 -132.53,-76.44 -4.03,-2.23 -8.01,-4.56 -11.82,-7.15 7.94,-5.02 16.25,-9.43 24.28,-14.29 z"
         id="path6" />
    </g>
    <g
       id="#6ab6c4ff">
      <path
         fill="#3cadff"
         opacity="1"
         d="m 99.04,56.64 0.65,0.34 c 6.42,3.21 12.48,7.08 18.76,10.54 17.53,10.26 35.23,20.23 52.71,30.58 -0.03,22.36 0.36,44.73 -0.34,67.09 -7.6,-3.56 -14.66,-8.14 -22.06,-12.09 -14.7,-9.1 -30.01,-17.17 -44.85,-26.03 -1.99,-1.26 -4.21,-2.75 -4.54,-5.29 -1.23,-5.83 -1.24,-11.86 -1.03,-17.79 0.31,-1.64 0.69,-3.28 0.67,-4.96 0.01,-14.13 -0.06,-28.26 0.03,-42.39 z"
         id="path9" />
      <path
         fill="#3cadff"
         opacity="1"
         d="m 51.08,129.66 c 0.32,0.16 0.96,0.48 1.28,0.65 4.24,2.52 8.34,5.3 12.72,7.59 29.47,16.83 58.72,34.04 88.2,50.85 6,3.67 12.41,6.69 17.96,11.05 -0.22,22.76 0.34,45.52 -0.41,68.26 -6.73,-4.79 -14.26,-8.26 -21.23,-12.68 -24.42,-13.89 -48.59,-28.23 -73.08,-42 -6.76,-3.87 -13.26,-8.2 -20.18,-11.78 -1.78,-1.08 -3.95,-1.99 -4.86,-4 -1.48,-3.28 -1.25,-6.99 -0.83,-10.48 0.61,-4.34 0.28,-8.75 0.35,-13.12 0.06,-14.78 -0.11,-29.56 0.08,-44.34 z"
         id="path11" />
      <path
         fill="#3cadff"
         opacity="1"
         d="m 21,202.85 0.73,0.49 c 3.81,2.59 7.79,4.92 11.82,7.15 44.13,25.56 88.24,51.16 132.53,76.44 1.81,1.16 3.5,2.51 5.19,3.86 -0.12,23.83 -0.06,47.66 -0.03,71.49 C 120.96,333.82 71.2,304.45 21,275.86 c 0,-24.34 0,-48.67 0,-73.01 z"
         id="path13" />
    </g>
    <g
       id="#4c858fff">
      <path
         fill="#1a6aad"
         opacity="1"
         d="m 242.45,57.08 0.58,-0.34 c 0.14,15.44 -0.43,30.92 0.3,46.34 0.88,7.28 0.35,14.63 1.06,21.93 0.15,2.81 0.64,5.68 0.06,8.47 -1.92,3.64 -5.65,5.8 -9.01,7.95 -6.75,3.88 -13.25,8.2 -20.17,11.8 -11.38,5.88 -21.77,13.78 -34,17.96 -6.25,2.09 -13.19,2.26 -19.42,-0.02 -9.98,-3.22 -18.38,-9.7 -27.6,-14.47 -7.13,-3.76 -13.96,-8.02 -20.88,-12.12 -4.51,-2.7 -9.45,-4.95 -13.11,-8.84 -1.85,-1.76 -1.91,-4.42 -2.24,-6.78 5.84,2.08 10.82,5.85 16.24,8.75 18.95,10.47 37.26,22.09 56.42,32.16 0.05,-1.56 0.1,-3.12 0.14,-4.68 0.7,-22.36 0.31,-44.73 0.34,-67.09 23.87,-13.49 47.49,-27.42 71.29,-41.02 z"
         id="path16" />
      <path
         fill="#1a6aad"
         opacity="1"
         d="m 272.19,141.18 c 6.25,-3.65 12.39,-7.51 18.98,-10.55 -0.08,15.13 -0.01,30.25 -0.04,45.37 0.02,3.65 -0.32,7.35 0.54,10.94 0.58,5.02 0.84,10.09 0.71,15.15 -0.12,1.65 -0.12,3.65 -1.72,4.62 -8.66,6.71 -18.64,11.35 -27.87,17.17 -22.88,13.06 -45.74,26.13 -68.41,39.55 -6.73,3.48 -13.13,8.04 -20.69,9.54 -4.69,0.96 -9.19,-1.28 -13.33,-3.19 -8.7,-4.46 -16.87,-9.87 -25.45,-14.54 -7.6,-3.96 -14.89,-8.48 -22.31,-12.76 -8.01,-5.15 -16.72,-9.07 -24.63,-14.37 -10.43,-5.82 -20.78,-11.78 -30.92,-18.08 -2.59,-1.55 -4.66,-3.79 -6.2,-6.37 2.92,0.56 5.75,1.58 8.28,3.16 7.56,4.51 15.09,9.08 22.88,13.19 23.06,13.7 46.45,26.84 69.6,40.39 6.37,3.51 12.36,7.73 19.08,10.6 0.03,-0.74 0.1,-2.2 0.14,-2.94 0.75,-22.74 0.19,-45.5 0.41,-68.26 6.98,-4.71 14.42,-8.67 21.7,-12.89 26.4,-15.27 52.81,-30.53 79.25,-45.73 z"
         id="path18" />
      <path
         fill="#1a6aad"
         opacity="1"
         d="m 265.07,236.1 c 18.75,-10.69 37.28,-21.8 56.25,-32.09 l 0.65,-0.32 c 0.08,23.75 -0.01,47.51 0.05,71.26 -2.73,2.06 -5.65,3.86 -8.68,5.42 -42.03,24.3 -84.08,48.55 -126.13,72.83 -5.3,3.05 -10.55,6.23 -15.97,9.08 -0.03,-23.83 -0.09,-47.66 0.03,-71.49 4.32,-2.95 8.81,-5.63 13.38,-8.18 26.74,-15.61 53.63,-30.98 80.42,-46.51 z"
         id="path20" />
    </g>
  </g>
</svg>
